HIERARCHY
ROOT hip
{
  OFFSET 0 0 0
  CHANNELS 6 Xposition Yposition Zposition Zrotation Yrotation Xrotation
  JOINT abdomen
  {
    OFFSET 0 20.6881 -0.73152
    CHANNELS 3 Zrotation Xrotation Yrotation
    JOINT chest
    {
      OFFSET 0 11.7043 -0.48768
      CHANNELS 3 Zrotation Xrotation Yrotation
      JOINT neck
      {
        OFFSET 0 22.1894 -2.19456
        CHANNELS 3 Zrotation Xrotation Yrotation
        JOINT head
        {
          OFFSET -0.24384 7.07133 1.2192
          CHANNELS 3 Zrotation Xrotation Yrotation
          JOINT leftEye
          {
            OFFSET 4.14528 8.04674 8.04672
            CHANNELS 3 Zrotation Xrotation Yrotation
            End Site
            {
              OFFSET 1 0 0
            }
          }
          JOINT rightEye
          {
            OFFSET -3.6576 8.04674 8.04672
            CHANNELS 3 Zrotation Xrotation Yrotation
            End Site
            {
              OFFSET 1 0 0
            }
          }
        }
      }
      JOINT rCollar
      {
        OFFSET -2.68224 19.2634 -4.8768
        CHANNELS 3 Zrotation Xrotation Yrotation
        JOINT rShldr
        {
          OFFSET -8.77824 -1.95073 1.46304
          CHANNELS 3 Zrotation Xrotation Yrotation
          JOINT rForeArm
          {
            OFFSET -28.1742 -1.7115 0.48768
            CHANNELS 3 Zrotation Xrotation Yrotation
            JOINT rHand
            {
              OFFSET -22.5879 0.773209 7.07136
              CHANNELS 3 Zrotation Xrotation Yrotation
              JOINT rThumb1
              {
                OFFSET -1.2192 -0.487915 3.41376
                CHANNELS 3 Zrotation Xrotation Yrotation
                JOINT rThumb2
                {
                  OFFSET -3.37035 -0.52449 3.41376
                  CHANNELS 3 Zrotation Xrotation Yrotation
                  End Site
                  {
                    OFFSET -1.78271 -1.18214 1.43049
                  }
                }
              }
              JOINT rIndex1
              {
                OFFSET -7.75947 0.938293 5.60832
                CHANNELS 3 Zrotation Xrotation Yrotation
                JOINT rIndex2
                {
                  OFFSET -2.54057 -0.884171 1.56538
                  CHANNELS 3 Zrotation Xrotation Yrotation
                  End Site
                  {
                    OFFSET -1.62519 -0.234802 1.16502
                  }
                }
              }
              JOINT rMid1
              {
                OFFSET -8.24714 1.18213 3.41376
                CHANNELS 3 Zrotation Xrotation Yrotation
                JOINT rMid2
                {
                  OFFSET -3.10165 -0.590103 1.0647
                  CHANNELS 3 Zrotation Xrotation Yrotation
                  End Site
                  {
                    OFFSET -2.48547 -0.328903 0.83742
                  }
                }
              }
              JOINT rRing1
              {
                OFFSET -8.82822 0.546677 1.51678
                CHANNELS 3 Zrotation Xrotation Yrotation
                JOINT rRing2
                {
                  OFFSET -2.60934 -0.819778 -0.0198488
                  CHANNELS 3 Zrotation Xrotation Yrotation
                  End Site
                  {
                    OFFSET -2.33842 -0.294052 0.168128
                  }
                }
              }
              JOINT rPinky1
              {
                OFFSET -8.27202 -0.0477905 -0.4584
                CHANNELS 3 Zrotation Xrotation Yrotation
                JOINT rPinky2
                {
                  OFFSET -1.82734 -0.647385 -0.700984
                  CHANNELS 3 Zrotation Xrotation Yrotation
                  End Site
                  {
                    OFFSET -1.69225 -0.51767 -0.607171
                  }
                }
              }
            }
          }
        }
      }
      JOINT lCollar
      {
        OFFSET 2.68224 19.2634 -4.8768
        CHANNELS 3 Zrotation Xrotation Yrotation
        JOINT lShldr
        {
          OFFSET 8.77824 -1.95073 1.46304
          CHANNELS 3 Zrotation Xrotation Yrotation
          JOINT lForeArm
          {
            OFFSET 28.1742 -1.7115 0.48768
            CHANNELS 3 Zrotation Xrotation Yrotation
            JOINT lHand
            {
              OFFSET 22.5879 0.773209 7.07136
              CHANNELS 3 Zrotation Xrotation Yrotation
              JOINT lThumb1
              {
                OFFSET 1.2192 -0.487915 3.41376
                CHANNELS 3 Zrotation Xrotation Yrotation
                JOINT lThumb2
                {
                  OFFSET 3.37035 -0.52449 3.41376
                  CHANNELS 3 Zrotation Xrotation Yrotation
                  End Site
                  {
                    OFFSET 1.78271 -1.18214 1.43049
                  }
                }
              }
              JOINT lIndex1
              {
                OFFSET 7.75947 0.938293 5.60832
                CHANNELS 3 Zrotation Xrotation Yrotation
                JOINT lIndex2
                {
                  OFFSET 2.54057 -0.884171 1.56538
                  CHANNELS 3 Zrotation Xrotation Yrotation
                  End Site
                  {
                    OFFSET 1.62519 -0.234802 1.16502
                  }
                }
              }
              JOINT lMid1
              {
                OFFSET 8.24714 1.18213 3.41376
                CHANNELS 3 Zrotation Xrotation Yrotation
                JOINT lMid2
                {
                  OFFSET 3.10165 -0.590103 1.0647
                  CHANNELS 3 Zrotation Xrotation Yrotation
                  End Site
                  {
                    OFFSET 2.48547 -0.328903 0.83742
                  }
                }
              }
              JOINT lRing1
              {
                OFFSET 8.82822 0.546677 1.51678
                CHANNELS 3 Zrotation Xrotation Yrotation
                JOINT lRing2
                {
                  OFFSET 2.60934 -0.819778 -0.0198488
                  CHANNELS 3 Zrotation Xrotation Yrotation
                  End Site
                  {
                    OFFSET 2.33842 -0.294052 0.168128
                  }
                }
              }
              JOINT lPinky1
              {
                OFFSET 8.27202 -0.0477905 -0.4584
                CHANNELS 3 Zrotation Xrotation Yrotation
                JOINT lPinky2
                {
                  OFFSET 1.82734 -0.647385 -0.700984
                  CHANNELS 3 Zrotation Xrotation Yrotation
                  End Site
                  {
                    OFFSET 1.69225 -0.51767 -0.607171
                  }
                }
              }
            }
          }
        }
      }
    }
  }
  JOINT rButtock
  {
    OFFSET -8.77824 4.35084 1.2192
    CHANNELS 3 Zrotation Xrotation Yrotation
    JOINT rThigh
    {
      OFFSET 0 -1.70687 -2.19456
      CHANNELS 3 Zrotation Xrotation Yrotation
      JOINT rShin
      {
        OFFSET 0 -36.8199 0.73152
        CHANNELS 3 Zrotation Xrotation Yrotation
        JOINT rFoot
        {
          OFFSET 0.73152 -45.1104 -5.12064
          CHANNELS 3 Zrotation Xrotation Yrotation
          End Site
          {
            OFFSET -1.1221 -3.69964 12.103
          }
        }
      }
    }
  }
  JOINT lButtock
  {
    OFFSET 8.77824 4.35084 1.2192
    CHANNELS 3 Zrotation Xrotation Yrotation
    JOINT lThigh
    {
      OFFSET 0 -1.70687 -2.19456
      CHANNELS 3 Zrotation Xrotation Yrotation
      JOINT lShin
      {
        OFFSET 0 -36.8199 0.73152
        CHANNELS 3 Zrotation Xrotation Yrotation
        JOINT lFoot
        {
          OFFSET -0.73152 -45.1104 -5.12064
          CHANNELS 3 Zrotation Xrotation Yrotation
          End Site
          {
            OFFSET 1.1221 -3.69964 12.103
          }
        }
      }
    }
  }
}
MOTION
Frames:	4
Frame Time:	0.00833333
-0.174032 83.2308 27.7047 -2.1079 -2.1885 1.418 -1.67575 11.8097 2.29765 0.788604 0.728916 0.666654 -0.892324 7.39977 -0.0873793 2.70509 6.79434 -0.181723 -0.0 0.0 0.0 -0.0 0.0 0.0 8.00212e-15 1.08591e-14 -6.021e-15 83.1922 9.3905 -7.03067 -11.6799 -5.22889 20.9887 -2.01248 36.8343 6.0421 -2.74094e-10 8.4309e-12 2.84251e-10 -4.64724e-10 1.08444e-11 4.99835e-10 -2.74086e-10 8.43059e-12 2.84244e-10 7.73091 5.47488 0.417314 -2.74096e-10 8.43105e-12 2.84248e-10 2.90554 0.965183 0.102902 -2.74087e-10 8.43171e-12 2.84249e-10 10.2786 0.731801 0.0259123 -2.74095e-10 8.43423e-12 2.84262e-10 2.22167 -0.733487 -0.20892 8.0495e-15 1.08586e-14 -6.12777e-15 -85.1519 18.5151 10.6346 1.84927 -0.499643 -3.18821 0.193531 12.444 -1.77708 5.44466e-10 -1.60965e-10 -5.01898e-10 9.36299e-10 -2.73777e-10 -8.73494e-10 5.4446e-10 -1.60968e-10 -5.0189e-10 -7.73091 5.47488 -0.417314 5.44467e-10 -1.6097e-10 -5.01894e-10 -2.90554 0.965183 -0.102902 5.4446e-10 -1.60969e-10 -5.01896e-10 -10.2786 0.731801 -0.0259123 5.44471e-10 -1.60967e-10 -5.01906e-10 -2.22167 -0.733487 0.20892 -2.03217e-16 0.0 -3.88251e-19 -3.70984 -39.0524 -6.37858 -0.204589 29.656 0.380298 -0.766943 10.0204 3.73442 2.03217e-16 0.0 3.88251e-19 7.86356 -36.5278 9.08567 0.117274 30.4534 -0.584695 1.6441 -7.83941 6.23094
-0.222045 81.3947 29.3169 -2.0911 -2.3105 0.3826 -1.71634 12.0992 2.4269 0.813176 0.372655 0.694475 -0.853799 7.29842 -0.119216 2.72123 7.17855 -0.256592 -0.0 0.0 0.0 -0.0 0.0 0.0 -1.14124e-15 2.16675e-14 -7.56624e-15 82.9412 8.26933 -6.78493 -11.2686 -4.95229 20.1974 -2.20078 38.1883 6.34866 -5.6682e-10 6.82507e-11 2.88715e-10 -9.691e-10 1.11495e-10 5.17439e-10 -5.66811e-10 6.825e-11 2.88707e-10 7.73091 5.47488 0.417314 -5.66822e-10 6.82519e-11 2.88713e-10 2.90554 0.965183 0.102902 -5.66812e-10 6.82524e-11 2.88712e-10 10.2786 0.731801 0.0259123 -5.66824e-10 6.82557e-11 2.88724e-10 2.22167 -0.733487 -0.20892 -1.08895e-15 2.1668e-14 -7.70601e-15 -84.7425 18.0724 9.98932 1.5741 -0.418861 -2.71136 0.224915 13.4136 -1.92043 5.97619e-10 -1.39763e-10 -7.12782e-10 1.02531e-09 -2.35718e-10 -1.23934e-09 5.97614e-10 -1.39766e-10 -7.12773e-10 -7.73091 5.47488 -0.417314 5.97621e-10 -1.39768e-10 -7.12779e-10 -2.90554 0.965183 -0.102902 5.97614e-10 -1.39767e-10 -7.12779e-10 -10.2786 0.731801 -0.0259123 5.97624e-10 -1.39765e-10 -7.12789e-10 -2.22167 -0.733487 0.20892 -2.03217e-16 0.0 -3.88251e-19 -3.39131 -38.5924 -6.00652 -0.23324 32.16 0.438321 -0.684849 7.82825 5.02555 2.03217e-16 0.0 3.88251e-19 7.88397 -36.4024 9.31175 0.161597 32.9948 -0.625655 1.38717 -6.86618 5.27349
-0.259773 79.6507 30.8193 -2.0877 -2.3398 -0.6185 -1.77236 12.3852 2.5311 0.869779 -0.0131526 0.715664 -0.816922 7.1817 -0.154511 2.71328 7.44672 -0.334252 -0.0 0.0 0.0 -0.0 0.0 0.0 -1.04066e-14 2.87984e-14 -8.3474e-15 82.6304 6.99572 -6.37699 -10.857 -4.68133 19.4144 -2.43033 39.7329 6.71158 -8.6876e-10 1.31574e-10 2.92115e-10 -1.48946e-09 2.18215e-10 5.33397e-10 -8.6875e-10 1.31573e-10 2.92106e-10 7.73091 5.47488 0.417314 -8.68762e-10 1.31576e-10 2.92115e-10 2.90554 0.965183 0.102902 -8.68751e-10 1.31576e-10 2.92111e-10 10.2786 0.731801 0.0259123 -8.68767e-10 1.3158e-10 2.92122e-10 2.22167 -0.733487 -0.20892 -1.03569e-14 2.87998e-14 -8.52483e-15 -84.2651 17.6257 9.14435 1.33766 -0.351623 -2.30189 0.256644 14.3039 -2.05326 6.449e-10 -1.09529e-10 -9.56003e-10 1.10408e-09 -1.82024e-10 -1.66087e-09 6.44895e-10 -1.09532e-10 -9.55994e-10 -7.73091 5.47488 -0.417314 6.44902e-10 -1.09534e-10 -9.56001e-10 -2.90554 0.965183 -0.102902 6.44894e-10 -1.09534e-10 -9.55998e-10 -10.2786 0.731801 -0.0259123 6.44905e-10 -1.09531e-10 -9.5601e-10 -2.22167 -0.733487 0.20892 -2.03217e-16 0.0 -3.88251e-19 -3.07514 -38.4182 -5.61138 -0.272608 35.0725 0.508066 -0.477179 5.4299 6.05226 2.03217e-16 0.0 3.88251e-19 7.95258 -36.6168 9.55667 0.21516 35.9311 -0.677763 1.15858 -5.85305 4.29186
-0.276408 78.0284 32.1633 -2.0204 -2.2557 -1.5011 -1.8349 12.6093 2.6227 0.970044 -0.365347 0.73545 -0.784006 7.04996 -0.20364 2.67804 7.52715 -0.432052 -0.0 0.0 0.0 -0.0 0.0 0.0 -1.8555e-14 3.18048e-14 -4.87022e-15 82.2718 5.55691 -5.71321 -10.4766 -4.43604 18.6982 -2.7021 41.458 7.13206 -1.02956e-09 1.73207e-10 2.75582e-10 -1.76694e-09 2.88743e-10 5.10381e-10 -1.02955e-09 1.73206e-10 2.75573e-10 7.73091 5.47488 0.417314 -1.02957e-09 1.7321e-10 2.75582e-10 2.90554 0.965183 0.102902 -1.02956e-09 1.7321e-10 2.75578e-10 10.2786 0.731801 0.0259123 -1.02957e-09 1.73214e-10 2.75589e-10 2.22167 -0.733487 -0.20892 -1.85196e-14 3.18065e-14 -5.06901e-15 -83.7216 17.1874 7.9559 1.1494 -0.298199 -1.97715 0.285707 15.0397 -2.16412 6.36593e-10 -9.83873e-11 -1.06738e-09 1.08824e-09 -1.6232e-10 -1.85369e-09 6.36588e-10 -9.83893e-11 -1.06737e-09 -7.73091 5.47488 -0.417314 6.36595e-10 -9.8391e-11 -1.06738e-09 -2.90554 0.965183 -0.102902 6.36587e-10 -9.83906e-11 -1.06737e-09 -10.2786 0.731801 -0.0259123 6.36598e-10 -9.83881e-11 -1.06738e-09 -2.22167 -0.733487 0.20892 -2.03217e-16 0.0 -3.88251e-19 -2.75357 -38.822 -5.12418 -0.325409 38.4004 0.591942 -0.219694 3.12562 6.3053 2.03217e-16 0.0 3.88251e-19 8.08824 -37.3726 9.66555 0.280135 39.3075 -0.74936 1.0459 -5.17541 3.70693
